<?xml version="1.0" standalone="no"?><!DOCTYPE svg PUBLIC "-//W3C//DTD SVG 1.1//EN" "http://www.w3.org/Graphics/SVG/1.1/DTD/svg11.dtd"><svg t="1657557524980" class="icon" viewBox="0 0 1024 1024" version="1.1" xmlns="http://www.w3.org/2000/svg" p-id="2088" xmlns:xlink="http://www.w3.org/1999/xlink" width="200" height="200"><defs><style type="text/css">@font-face { font-family: feedback-iconfont; src: url("//at.alicdn.com/t/font_1031158_u69w8yhxdu.woff2?t=1630033759944") format("woff2"), url("//at.alicdn.com/t/font_1031158_u69w8yhxdu.woff?t=1630033759944") format("woff"), url("//at.alicdn.com/t/font_1031158_u69w8yhxdu.ttf?t=1630033759944") format("truetype"); }
</style></defs><path d="M327.3 929.1c-1-1.4-91.5-138.4-31.6-332.7 12.3-40 25.1-75.3 37.5-109.5 29.2-80.8 55-151.8 55-233.7 0-62.6-15.1-131.6-55.2-215.9-13.9-29.1-48.6-41.5-77.7-27.6-29 13.9-41.3 48.6-27.5 77.7 71.6 150.5 44.7 224.8-4.1 359.8-12.2 33.8-26.1 72.2-39.3 114.8-76.3 247.2 41.4 424.9 46.4 432.5 18.1 26.7 54.3 33.6 81 15.6 26.6-18.1 33.6-54.4 15.5-81zM704.7 87.4c71.6 150.5 44.6 224.8-4.1 359.8-12.2 33.8-26.1 72.2-39.3 114.8-76.3 247.2 41.4 424.9 46.4 432.5 18.1 26.7 54.3 33.6 81 15.6 26.6-18.1 33.5-54.4 15.6-81-0.9-1.4-91.6-138.4-31.6-332.7 12.3-40 25.1-75.3 37.5-109.5 29.2-80.8 55-151.8 55-233.7 0-62.6-15.1-131.6-55.2-215.9-13.9-29.1-48.6-41.5-77.7-27.6-29.1 13.9-41.4 48.6-27.6 77.7z m-238.5 0c71.6 150.5 44.7 224.8-4.1 359.8-12.2 33.8-26.1 72.2-39.3 114.8-76.3 247.2 41.4 425 46.4 432.5 18.1 26.7 54.3 33.6 81 15.6 26.7-18.1 33.5-54.4 15.6-81-1-1.4-91.6-138.4-31.6-332.7 12.3-40 25.1-75.3 37.5-109.5 29.2-80.8 55-151.8 55-233.7 0-62.6-15.1-131.6-55.2-215.9-13.9-29.1-48.6-41.5-77.7-27.6-29.1 13.9-41.4 48.6-27.6 77.7z" p-id="2089" fill="#ffffff"></path></svg>